<svg width="120" height="120" viewBox="0 0 120 120" fill="none" xmlns="http://www.w3.org/2000/svg">
<path d="M65.9999 6C65.9999 8.61244 64.3303 10.8349 61.9999 11.6586V23C61.9999 24.1046 61.1045 25 59.9999 25C58.8953 25 57.9999 24.1046 57.9999 23V11.6586C55.6695 10.8349 53.9999 8.61244 53.9999 6C53.9999 2.68629 56.6862 0 59.9999 0C63.3136 0 65.9999 2.68629 65.9999 6Z" fill="url(#paint0_linear)"/>
<path d="M113.804 41.3923C111.541 42.6985 108.782 42.3638 106.903 40.7575L97.0813 46.4282C96.1247 46.9805 94.9016 46.6527 94.3493 45.6962C93.797 44.7396 94.1247 43.5164 95.0813 42.9641L104.903 37.2934C104.451 34.8634 105.541 32.3062 107.804 31C110.674 29.3431 114.343 30.3264 116 33.1962C117.657 36.0659 116.674 39.7355 113.804 41.3923Z" fill="url(#paint1_linear)"/>
<path d="M104.903 82.5989C104.451 85.0289 105.541 87.5861 107.804 88.8923C110.674 90.5492 114.343 89.5659 116 86.6962C117.657 83.8264 116.674 80.1569 113.804 78.5C111.541 77.1938 108.782 77.5285 106.903 79.1348L97.0813 73.4641C96.1247 72.9118 94.9016 73.2396 94.3493 74.1962C93.797 75.1527 94.1247 76.3759 95.0813 76.9282L104.903 82.5989Z" fill="url(#paint2_linear)"/>
<path d="M7.19607 78.6077C9.45851 77.3015 12.218 77.6362 14.0966 79.2425L23.9185 73.5718C24.8751 73.0195 26.0983 73.3473 26.6506 74.3038C27.2028 75.2604 26.8751 76.4836 25.9185 77.0359L16.0966 82.7066C16.5484 85.1366 15.4585 87.6938 13.1961 89C10.3263 90.6569 6.65677 89.6736 4.99992 86.8038C3.34306 83.9341 4.32631 80.2645 7.19607 78.6077Z" fill="url(#paint3_linear)"/>
<path d="M14.0966 37.9011C14.5484 35.4711 13.4585 32.9139 11.1961 31.6077C8.32631 29.9508 4.65677 30.9341 2.99992 33.8038C1.34306 36.6736 2.32631 40.3431 5.19607 42C7.45851 43.3062 10.218 42.9715 12.0966 41.3652L21.9185 47.0359C22.8751 47.5882 24.0983 47.2604 24.6506 46.3038C25.2028 45.3473 24.8751 44.1241 23.9185 43.5718L14.0966 37.9011Z" fill="url(#paint4_linear)"/>
<path d="M53.9999 114C53.9999 111.388 55.6695 109.165 57.9999 108.341V97C57.9999 95.8954 58.8953 95 59.9999 95C61.1045 95 61.9999 95.8954 61.9999 97V108.341C64.3303 109.165 65.9999 111.388 65.9999 114C65.9999 117.314 63.3136 120 59.9999 120C56.6862 120 53.9999 117.314 53.9999 114Z" fill="url(#paint5_linear)"/>
<path d="M60.4998 62.0712C61.6044 62.0712 62.4998 62.9666 62.4998 64.0712V76.7941C62.4998 77.8987 61.6044 78.7941 60.4998 78.7941C59.3953 78.7941 58.4998 77.8987 58.4998 76.7941V64.0712C58.4998 62.9666 59.3953 62.0712 60.4998 62.0712Z" fill="url(#paint6_linear)"/>
<path d="M48.5494 62.2651C49.654 62.2651 50.5494 63.1606 50.5494 64.2651V76.988C50.5494 78.0926 49.654 78.988 48.5494 78.988C47.4448 78.988 46.5494 78.0926 46.5494 76.988V64.2651C46.5494 63.1606 47.4448 62.2651 48.5494 62.2651Z" fill="url(#paint7_linear)"/>
<path d="M74.4505 64.0712C74.4505 62.9666 73.5551 62.0712 72.4505 62.0712C71.3459 62.0712 70.4505 62.9666 70.4505 64.0712V76.7941C70.4505 77.8987 71.3459 78.7941 72.4505 78.7941C73.5551 78.7941 74.4505 77.8987 74.4505 76.7941V64.0712Z" fill="url(#paint8_linear)"/>
<path fill-rule="evenodd" clip-rule="evenodd" d="M35.0435 55.8713C35.0807 55.7153 35.1406 55.5682 35.2197 55.4337L46.1802 35.8445C46.2098 35.7892 46.2426 35.7359 46.2784 35.6847C46.4122 35.4923 46.5826 35.3371 46.7747 35.2235C47.0294 35.0729 47.3222 34.9952 47.6186 35.0003H73.3791C73.6803 34.9947 73.9779 35.0746 74.2356 35.2296C74.4143 35.3372 74.5739 35.4809 74.7022 35.6574C74.7463 35.7179 74.7863 35.7817 74.8218 35.8482L85.7818 55.4364C85.8534 55.5588 85.9092 55.6916 85.9464 55.8319C85.9855 55.9783 86.0028 56.1276 85.9996 56.2753L85.9998 56.2966V84.3656C85.9998 85.2485 85.284 85.9643 84.4011 85.9643L84.3805 85.9641L36.6191 85.9641L36.5989 85.9643C35.7159 85.9643 35.0002 85.2485 35.0002 84.3656V56.2966L35.0003 56.2767C34.9973 56.1417 35.0114 56.0055 35.0435 55.8713ZM72.4725 38.1976H48.5274L39.3254 54.644H81.6746L72.4725 38.1976ZM82.8024 82.7668V57.8414H38.1976V82.7668H82.8024Z" fill="url(#paint9_linear)"/>
<defs>
<linearGradient id="paint0_linear" x1="2.19507" y1="23.7934" x2="117.346" y2="24.6394" gradientUnits="userSpaceOnUse">
<stop stop-color="#A468FF"/>
<stop offset="0.446494" stop-color="#895AFF"/>
<stop offset="1" stop-color="#4839FF"/>
</linearGradient>
<linearGradient id="paint1_linear" x1="2.19507" y1="23.7934" x2="117.346" y2="24.6394" gradientUnits="userSpaceOnUse">
<stop stop-color="#A468FF"/>
<stop offset="0.446494" stop-color="#895AFF"/>
<stop offset="1" stop-color="#4839FF"/>
</linearGradient>
<linearGradient id="paint2_linear" x1="2.19507" y1="23.7934" x2="117.346" y2="24.6394" gradientUnits="userSpaceOnUse">
<stop stop-color="#A468FF"/>
<stop offset="0.446494" stop-color="#895AFF"/>
<stop offset="1" stop-color="#4839FF"/>
</linearGradient>
<linearGradient id="paint3_linear" x1="2.19507" y1="23.7934" x2="117.346" y2="24.6394" gradientUnits="userSpaceOnUse">
<stop stop-color="#A468FF"/>
<stop offset="0.446494" stop-color="#895AFF"/>
<stop offset="1" stop-color="#4839FF"/>
</linearGradient>
<linearGradient id="paint4_linear" x1="2.19507" y1="23.7934" x2="117.346" y2="24.6394" gradientUnits="userSpaceOnUse">
<stop stop-color="#A468FF"/>
<stop offset="0.446494" stop-color="#895AFF"/>
<stop offset="1" stop-color="#4839FF"/>
</linearGradient>
<linearGradient id="paint5_linear" x1="2.19507" y1="23.7934" x2="117.346" y2="24.6394" gradientUnits="userSpaceOnUse">
<stop stop-color="#A468FF"/>
<stop offset="0.446494" stop-color="#895AFF"/>
<stop offset="1" stop-color="#4839FF"/>
</linearGradient>
<linearGradient id="paint6_linear" x1="2.19507" y1="23.7934" x2="117.346" y2="24.6394" gradientUnits="userSpaceOnUse">
<stop stop-color="#A468FF"/>
<stop offset="0.446494" stop-color="#895AFF"/>
<stop offset="1" stop-color="#4839FF"/>
</linearGradient>
<linearGradient id="paint7_linear" x1="2.19507" y1="23.7934" x2="117.346" y2="24.6394" gradientUnits="userSpaceOnUse">
<stop stop-color="#A468FF"/>
<stop offset="0.446494" stop-color="#895AFF"/>
<stop offset="1" stop-color="#4839FF"/>
</linearGradient>
<linearGradient id="paint8_linear" x1="2.19507" y1="23.7934" x2="117.346" y2="24.6394" gradientUnits="userSpaceOnUse">
<stop stop-color="#A468FF"/>
<stop offset="0.446494" stop-color="#895AFF"/>
<stop offset="1" stop-color="#4839FF"/>
</linearGradient>
<linearGradient id="paint9_linear" x1="2.19507" y1="23.7934" x2="117.346" y2="24.6394" gradientUnits="userSpaceOnUse">
<stop stop-color="#A468FF"/>
<stop offset="0.446494" stop-color="#895AFF"/>
<stop offset="1" stop-color="#4839FF"/>
</linearGradient>
</defs>
</svg>
