<svg width="120" height="120" viewBox="0 0 120 120" fill="none" xmlns="http://www.w3.org/2000/svg">
<path d="M62.8048 11.6586C65.1351 10.8349 66.8048 8.61244 66.8048 6C66.8048 2.68629 64.1185 0 60.8048 0C57.4911 0 54.8048 2.68629 54.8048 6C54.8048 8.61244 56.4744 10.8349 58.8048 11.6586V23C58.8048 24.1046 59.7002 25 60.8048 25C61.9093 25 62.8048 24.1046 62.8048 23V11.6586Z" fill="url(#paint0_linear)"/>
<path fill-rule="evenodd" clip-rule="evenodd" d="M30.8048 78.3685L30.8115 78.3688C30.807 78.4597 30.8048 78.5509 30.8048 78.6423C30.8048 78.7337 30.807 78.8248 30.8115 78.9157C31.1558 85.8878 44.6342 91.495 61.2107 91.495C77.7873 91.495 91.2657 85.8878 91.6099 78.9157C91.6144 78.8248 91.6166 78.7336 91.6166 78.6423C91.6166 78.5509 91.6144 78.4597 91.6099 78.3688H91.6166V41.5793H91.6099C91.2656 34.6072 77.7873 29 61.2107 29C44.6342 29 31.1558 34.6072 30.8115 41.5793H30.8048V78.3685ZM86.3996 57.1525C87.4408 56.112 87.6166 55.3811 87.6166 54.9789L87.6166 54.9693L87.6163 54.9461C87.616 54.9316 87.6155 54.9172 87.6148 54.9027L87.5288 53.1616C87.3904 52.7306 87.0525 52.1343 86.2777 51.3915C85.8261 50.9586 85.2636 50.515 84.5876 50.072C79.0102 52.9033 70.6083 54.7055 61.2107 54.7055C51.8131 54.7055 43.4113 52.9033 37.8338 50.072C37.1578 50.515 36.5953 50.9586 36.1437 51.3915C35.3689 52.1343 35.031 52.7306 34.8926 53.1616L34.8066 54.9027C34.8054 54.928 34.8048 54.9534 34.8048 54.9789C34.8048 55.3811 34.9806 56.112 36.0218 57.1525C37.0786 58.2087 38.8096 59.3437 41.2679 60.3828C46.1685 62.4544 53.2168 63.8317 61.2107 63.8317C69.2046 63.8317 76.2529 62.4544 81.1536 60.3828C83.6118 59.3437 85.3428 58.2087 86.3996 57.1525ZM34.8048 41.8527C34.8048 42.2549 34.9806 42.9858 36.0218 44.0263C37.0786 45.0825 38.8096 46.2175 41.2679 47.2566C46.1685 49.3282 53.2168 50.7055 61.2107 50.7055C69.2046 50.7055 76.2529 49.3282 81.1536 47.2566C83.6118 46.2175 85.3428 45.0825 86.3996 44.0263C87.4408 42.9858 87.6166 42.2549 87.6166 41.8527C87.6166 41.7146 87.5959 41.5377 87.5265 41.3228C87.4335 41.0365 87.2527 40.6781 86.9154 40.2528C86.773 40.0734 86.6028 39.8822 86.3996 39.6792C86.3632 39.6428 86.3261 39.6063 86.2881 39.5698L86.2777 39.5598C85.2061 38.5325 83.5098 37.4448 81.1536 36.4488C81.0914 36.4226 81.0289 36.3964 80.9658 36.3703C76.071 34.3414 69.0995 33 61.2107 33C53.3219 33 46.3504 34.3414 41.4556 36.3703C41.3022 36.4338 41.1516 36.4978 41.0036 36.5621C38.7844 37.5269 37.1749 38.5713 36.1437 39.5598L36.1205 39.5821C36.087 39.6146 36.0541 39.6469 36.0218 39.6792C35.3392 40.3613 35.0285 40.9104 34.8955 41.3211C34.8256 41.5368 34.8048 41.7143 34.8048 41.8527ZM61.2107 67.8317C71.2056 67.8317 80.0742 65.7932 85.6165 62.6461C85.8585 62.8399 86.0789 63.0325 86.2777 63.2232C87.0525 63.966 87.3904 64.5622 87.5288 64.9933L87.6148 66.7344L87.6157 66.7554L87.6163 66.7765C87.6165 66.7878 87.6166 66.7992 87.6166 66.8106C87.6166 67.2127 87.4408 67.9436 86.3996 68.9842C85.3428 70.0404 83.6118 71.1754 81.1536 72.2145C76.2529 74.286 69.2046 75.6633 61.2107 75.6633C53.2168 75.6633 46.1685 74.286 41.2679 72.2145C38.8096 71.1754 37.0786 70.0404 36.0218 68.9842C34.9806 67.9436 34.8048 67.2127 34.8048 66.8106L34.8049 66.791L34.8051 66.7768L34.8057 66.7559L34.8066 66.7344L34.8926 64.9933C35.031 64.5622 35.3689 63.966 36.1437 63.2232C36.3426 63.0325 36.5629 62.8399 36.805 62.6461C42.3472 65.7932 51.2158 67.8317 61.2107 67.8317ZM87.6166 73.1872C82.3763 77.0563 72.5137 79.6633 61.2107 79.6633C49.9077 79.6633 40.0451 77.0563 34.8048 73.1872V74.3688H35.0139L34.8066 78.5661C34.8054 78.5914 34.8048 78.6167 34.8048 78.6423C34.8048 79.0444 34.9806 79.7753 36.0218 80.8158C37.0786 81.872 38.8096 83.007 41.2679 84.0462C46.1685 86.1177 53.2168 87.495 61.2107 87.495C69.2046 87.495 76.2529 86.1177 81.1536 84.0462C83.6118 83.007 85.3428 81.872 86.3996 80.8158C87.4408 79.7753 87.6166 79.0444 87.6166 78.6423L87.6164 78.6165C87.6161 78.5996 87.6156 78.5828 87.6148 78.5661L87.4075 74.3688H87.6166V73.1872Z" fill="url(#paint1_linear)"/>
<path d="M114.609 41.3923C112.346 42.6985 109.587 42.3638 107.708 40.7575L97.8863 46.4282C96.9297 46.9805 95.7065 46.6527 95.1542 45.6962C94.6019 44.7396 94.9297 43.5164 95.8863 42.9641L105.708 37.2934C105.256 34.8634 106.346 32.3062 108.609 31C111.478 29.3431 115.148 30.3264 116.805 33.1962C118.462 36.0659 117.478 39.7355 114.609 41.3923Z" fill="url(#paint2_linear)"/>
<path d="M105.708 82.5989C105.256 85.0289 106.346 87.5861 108.609 88.8923C111.478 90.5492 115.148 89.5659 116.805 86.6962C118.462 83.8264 117.478 80.1569 114.609 78.5C112.346 77.1938 109.587 77.5285 107.708 79.1348L97.8863 73.4641C96.9297 72.9118 95.7065 73.2396 95.1542 74.1962C94.6019 75.1527 94.9297 76.3759 95.8863 76.9282L105.708 82.5989Z" fill="url(#paint3_linear)"/>
<path d="M8.001 78.6077C10.2634 77.3015 13.023 77.6362 14.9015 79.2425L24.7234 73.5718C25.68 73.0195 26.9032 73.3473 27.4555 74.3038C28.0078 75.2604 27.68 76.4836 26.7234 77.0359L16.9015 82.7066C17.3534 85.1366 16.2634 87.6938 14.001 89C11.1312 90.6569 7.4617 89.6736 5.80485 86.8038C4.148 83.9341 5.13125 80.2645 8.001 78.6077Z" fill="url(#paint4_linear)"/>
<path d="M14.9015 37.9011C15.3534 35.4711 14.2634 32.9139 12.001 31.6077C9.13125 29.9508 5.4617 30.9341 3.80485 33.8038C2.148 36.6736 3.13125 40.3431 6.001 42C8.26344 43.3062 11.023 42.9715 12.9015 41.3652L22.7234 47.0359C23.68 47.5882 24.9032 47.2604 25.4555 46.3038C26.0078 45.3473 25.68 44.1241 24.7234 43.5718L14.9015 37.9011Z" fill="url(#paint5_linear)"/>
<path d="M54.8048 114C54.8048 111.388 56.4744 109.165 58.8048 108.341V97C58.8048 95.8954 59.7002 95 60.8048 95C61.9093 95 62.8048 95.8954 62.8048 97V108.341C65.1351 109.165 66.8048 111.388 66.8048 114C66.8048 117.314 64.1185 120 60.8048 120C57.4911 120 54.8048 117.314 54.8048 114Z" fill="url(#paint6_linear)"/>
<defs>
<linearGradient id="paint0_linear" x1="3" y1="23.7934" x2="118.151" y2="24.6394" gradientUnits="userSpaceOnUse">
<stop stop-color="#A468FF"/>
<stop offset="0.446494" stop-color="#895AFF"/>
<stop offset="1" stop-color="#4839FF"/>
</linearGradient>
<linearGradient id="paint1_linear" x1="3" y1="23.7934" x2="118.151" y2="24.6394" gradientUnits="userSpaceOnUse">
<stop stop-color="#A468FF"/>
<stop offset="0.446494" stop-color="#895AFF"/>
<stop offset="1" stop-color="#4839FF"/>
</linearGradient>
<linearGradient id="paint2_linear" x1="3" y1="23.7934" x2="118.151" y2="24.6394" gradientUnits="userSpaceOnUse">
<stop stop-color="#A468FF"/>
<stop offset="0.446494" stop-color="#895AFF"/>
<stop offset="1" stop-color="#4839FF"/>
</linearGradient>
<linearGradient id="paint3_linear" x1="3" y1="23.7934" x2="118.151" y2="24.6394" gradientUnits="userSpaceOnUse">
<stop stop-color="#A468FF"/>
<stop offset="0.446494" stop-color="#895AFF"/>
<stop offset="1" stop-color="#4839FF"/>
</linearGradient>
<linearGradient id="paint4_linear" x1="3" y1="23.7934" x2="118.151" y2="24.6394" gradientUnits="userSpaceOnUse">
<stop stop-color="#A468FF"/>
<stop offset="0.446494" stop-color="#895AFF"/>
<stop offset="1" stop-color="#4839FF"/>
</linearGradient>
<linearGradient id="paint5_linear" x1="3" y1="23.7934" x2="118.151" y2="24.6394" gradientUnits="userSpaceOnUse">
<stop stop-color="#A468FF"/>
<stop offset="0.446494" stop-color="#895AFF"/>
<stop offset="1" stop-color="#4839FF"/>
</linearGradient>
<linearGradient id="paint6_linear" x1="3" y1="23.7934" x2="118.151" y2="24.6394" gradientUnits="userSpaceOnUse">
<stop stop-color="#A468FF"/>
<stop offset="0.446494" stop-color="#895AFF"/>
<stop offset="1" stop-color="#4839FF"/>
</linearGradient>
</defs>
</svg>
