<svg width="192" height="192" viewBox="0 0 192 192" fill="none" xmlns="http://www.w3.org/2000/svg">
<path d="M96.0015 51.0936C101.987 51.0936 106.839 46.2417 106.839 40.2565C106.839 34.2714 101.987 29.4194 96.0015 29.4194C90.0164 29.4194 85.1644 34.2714 85.1644 40.2565C85.1644 46.2417 90.0164 51.0936 96.0015 51.0936Z" fill="#7E41FF"/>
<path fill-rule="evenodd" clip-rule="evenodd" d="M156.662 68.1279C156.662 73.5031 153.238 78.0788 148.453 79.7933L148.216 113.771C152.253 115.347 155.112 119.274 155.112 123.869C155.112 129.855 150.26 134.706 144.275 134.706C141.713 134.706 139.358 133.817 137.503 132.33L108.191 149.526C108.321 150.244 108.389 150.985 108.389 151.741C108.389 158.582 102.843 164.129 96.0009 164.129C89.1593 164.129 83.613 158.582 83.613 151.741C83.613 146.426 86.9596 141.893 91.6603 140.135L91.4472 109.173C85.9869 107.286 82.0654 102.1 82.0654 95.9983C82.0654 88.3019 88.3045 82.0628 96.0009 82.0628C99.4929 82.0628 102.685 83.3472 105.13 85.4694L132.054 70.1746C131.944 69.5088 131.886 68.8251 131.886 68.1279C131.886 61.2862 137.432 55.74 144.274 55.74C151.116 55.74 156.662 61.2862 156.662 68.1279ZM140.099 79.7946L140.334 113.771C136.297 115.348 133.438 119.275 133.438 123.869C133.438 124.425 133.48 124.971 133.561 125.504L104.013 142.292C102.931 141.374 101.691 140.639 100.338 140.133L100.555 109.173C106.015 107.286 109.936 102.1 109.936 95.9983C109.936 95.0947 109.85 94.2112 109.686 93.3555L136.395 77.6881C137.488 78.5898 138.739 79.3078 140.099 79.7946Z" fill="#7E41FF"/>
<path d="M43.55 79.793C38.7636 78.079 35.3392 73.5029 35.3392 68.127C35.3392 61.2853 40.8855 55.739 47.7272 55.739C54.5688 55.739 60.1151 61.2853 60.1151 68.127C60.1151 73.5029 56.6907 78.0791 51.9042 79.793L51.6682 113.772C55.7042 115.348 58.5633 119.275 58.5633 123.87C58.5633 129.855 53.7114 134.707 47.7262 134.707C41.7411 134.707 36.8891 129.855 36.8891 123.87C36.8891 119.274 39.749 115.347 43.786 113.771L43.55 79.793Z" fill="#7E41FF"/>
</svg>
