<svg width="48" height="48" viewBox="0 0 48 48" fill="none" xmlns="http://www.w3.org/2000/svg">
<path fill-rule="evenodd" clip-rule="evenodd" d="M12.0264 46.0541C12.7612 46.9774 13.8474 47.4869 14.9975 47.4869L33.016 47.455C34.1661 47.455 35.2524 46.9138 35.9872 46.0222L47.1689 32.1717C47.9037 31.2483 48.1592 30.0702 47.9037 28.924L43.9102 11.6347C43.6546 10.4884 42.8879 9.56505 41.8336 9.0556L25.6681 1.38208C25.1569 1.12736 24.5818 1 24.0068 1C23.4317 1 22.8567 1.12736 22.3455 1.38208L6.17997 9.08744C5.1257 9.59689 4.35895 10.5203 4.10337 11.6665L0.109908 28.9558C-0.177621 30.1021 0.109908 31.2802 0.844705 32.2035L12.0264 46.0541ZM2.54804 30.84C2.54934 30.8417 2.55063 30.8433 2.55193 30.8449L13.7337 44.6955C14.0485 45.0911 14.5022 45.3047 14.9963 45.3051C14.9967 45.3051 14.9971 45.3051 14.9975 45.3051L33.016 45.2732C33.4735 45.2732 33.9527 45.0561 34.2977 44.6416L45.4616 30.8131C45.4629 30.8116 45.4641 30.81 45.4653 30.8085C45.7731 30.419 45.8892 29.9233 45.7756 29.4053C45.7751 29.4031 45.7746 29.401 45.7741 29.3988L41.7825 12.1176L41.7807 12.1095C41.6788 11.6528 41.3755 11.2593 40.8898 11.0228C40.888 11.0219 40.8862 11.021 40.8843 11.0201L24.7136 3.34417L24.6949 3.33487C24.5049 3.24019 24.2659 3.18182 24.0068 3.18182C23.7477 3.18182 23.5086 3.24019 23.3186 3.33487L23.3015 3.34339L7.12925 11.0519C7.12783 11.0526 7.12641 11.0533 7.125 11.054C6.63858 11.2905 6.33481 11.6842 6.23289 12.1413L6.23109 12.1494L2.23115 29.4668L2.22616 29.4867C2.11515 29.9292 2.21123 30.414 2.54804 30.84Z" fill="url(#paint0_linear)"/>
<path d="M40.1723 27.7458C40.1404 27.7458 40.1404 27.7458 40.1723 27.7458H40.1404C40.1084 27.7458 40.0765 27.7458 40.0765 27.714C40.0126 27.714 39.9487 27.6821 39.8848 27.6821C39.6612 27.6503 39.4695 27.6185 39.2778 27.6185C39.1819 27.6185 39.0861 27.6185 38.9583 27.5866H38.9264C38.2555 27.5229 37.7124 27.4593 37.2012 27.3001C36.9776 27.2045 36.9137 27.0772 36.8498 26.9498C36.8498 26.918 36.8178 26.918 36.8178 26.8861L36.4025 26.7588C36.5942 25.2941 36.5303 23.7658 36.1789 22.2693C35.8274 20.7728 35.2204 19.3718 34.3898 18.0982L34.7093 17.8116V17.748C34.7093 17.5888 34.7412 17.4296 34.869 17.2703C35.2524 16.9201 35.7316 16.6335 36.3067 16.2833C36.4025 16.2196 36.4983 16.1878 36.5942 16.1241C36.7859 16.0286 36.9456 15.9331 37.1373 15.8057C37.1692 15.7739 37.2331 15.742 37.297 15.6783C37.329 15.6465 37.3609 15.6465 37.3609 15.6147C37.8082 15.2326 37.904 14.5958 37.5846 14.1818C37.4248 13.959 37.1373 13.8316 36.8498 13.8316C36.5942 13.8316 36.3706 13.9271 36.1469 14.0863C36.115 14.1182 36.115 14.1182 36.083 14.15C36.0191 14.1818 35.9872 14.2455 35.9233 14.2774C35.7635 14.4366 35.6358 14.5639 35.508 14.7231C35.4441 14.7868 35.3802 14.8823 35.2843 14.946C34.8371 15.4236 34.4217 15.8057 34.0064 16.0923C33.9106 16.1559 33.8147 16.1878 33.7189 16.1878C33.655 16.1878 33.5911 16.1878 33.5272 16.1559H33.4633L33.0799 16.4107C32.6646 15.9649 32.2174 15.5828 31.7701 15.2007C29.8532 13.7042 27.521 12.7809 25.093 12.558L25.0611 12.1441C25.0291 12.1122 25.0291 12.1122 24.9972 12.0804C24.9013 11.9849 24.7735 11.8893 24.7416 11.6665C24.7096 11.157 24.7735 10.5839 24.8374 9.94707V9.91523C24.8374 9.81971 24.8694 9.69235 24.9013 9.59683C24.9333 9.40579 24.9652 9.21475 24.9972 8.99186V8.80082V8.7053C24.9972 8.13218 24.5499 7.65457 24.0068 7.65457C23.7512 7.65457 23.4956 7.78193 23.304 7.97297C23.1123 8.16402 23.0164 8.41874 23.0164 8.7053V8.76898V8.96002C23.0164 9.18291 23.0484 9.37395 23.1123 9.56499C23.1442 9.66051 23.1442 9.75603 23.1762 9.88339V9.91523C23.2401 10.552 23.3359 11.1252 23.272 11.6346C23.2401 11.8575 23.1123 11.953 23.0164 12.0485C22.9845 12.0804 22.9845 12.0804 22.9525 12.1122L22.9206 12.5261C22.3455 12.5898 21.7705 12.6535 21.1954 12.7809C18.7354 13.3221 16.563 14.5639 14.8698 16.347L14.5503 16.1241H14.4864C14.4225 16.1241 14.3586 16.1559 14.2947 16.1559C14.1989 16.1559 14.103 16.1241 14.0072 16.0604C13.5919 15.7739 13.1765 15.3599 12.7293 14.8823C12.6654 14.8186 12.6015 14.7231 12.5056 14.6594C12.3778 14.5002 12.2501 14.3729 12.0903 14.2137C12.0584 14.1818 11.9945 14.15 11.9306 14.0863C11.8986 14.0545 11.8667 14.0545 11.8667 14.0226C11.675 13.8634 11.4194 13.7679 11.1638 13.7679C10.8763 13.7679 10.5888 13.8953 10.429 14.1182C10.1096 14.5321 10.2054 15.1689 10.6527 15.551C10.6846 15.551 10.6846 15.5828 10.7166 15.5828C10.7805 15.6147 10.8124 15.6783 10.8763 15.7102C11.068 15.8375 11.2277 15.9331 11.4194 16.0286C11.5153 16.0604 11.6111 16.1241 11.7069 16.1878C12.282 16.538 12.7612 16.8246 13.1446 17.1748C13.3043 17.334 13.3043 17.4932 13.3043 17.6524V17.7161L13.6238 18.0027C13.5599 18.0982 13.496 18.1619 13.4641 18.2574C11.8667 20.7728 11.2597 23.7339 11.675 26.6632L11.2597 26.7906C11.2597 26.8224 11.2277 26.8224 11.2277 26.8543C11.1638 26.9817 11.068 27.109 10.8763 27.2045C10.3971 27.3637 9.82203 27.4274 9.15113 27.4911H9.11918C9.02334 27.4911 8.89555 27.4911 8.7997 27.5229C8.60802 27.5229 8.41633 27.5548 8.1927 27.5866C8.1288 27.5866 8.06491 27.6185 8.00101 27.6185C7.96906 27.6185 7.93712 27.6185 7.90517 27.6503C7.33011 27.7777 6.97868 28.3189 7.07453 28.8284C7.17037 29.2742 7.58569 29.5607 8.09685 29.5607C8.1927 29.5607 8.25659 29.5607 8.35244 29.5289C8.38438 29.5289 8.41633 29.5289 8.41633 29.497C8.48023 29.497 8.54412 29.4652 8.60802 29.4652C8.83165 29.4015 8.99139 29.3378 9.18308 29.2423C9.27892 29.2105 9.37476 29.1468 9.4706 29.1149H9.50255C10.1096 28.8921 10.6527 28.701 11.1638 28.6373H11.2277C11.4194 28.6373 11.5472 28.7329 11.643 28.7965C11.675 28.7965 11.675 28.8284 11.7069 28.8284L12.1542 28.7647C12.921 31.1209 14.3905 33.2224 16.3394 34.7507C16.7866 35.1009 17.2339 35.3875 17.7131 35.6741L17.5214 36.088C17.5214 36.1198 17.5534 36.1198 17.5534 36.1517C17.6173 36.279 17.6812 36.4382 17.6173 36.6611C17.4256 37.1387 17.138 37.6163 16.7866 38.1576V38.1894C16.7227 38.285 16.6588 38.3486 16.5949 38.4442C16.4671 38.6034 16.3713 38.7626 16.2435 38.9536C16.2116 38.9855 16.1796 39.0491 16.1477 39.1128C16.1477 39.1447 16.1157 39.1765 16.1157 39.1765C15.8601 39.7178 16.0518 40.3227 16.531 40.5456C16.6588 40.6093 16.7866 40.6411 16.9144 40.6411C17.2978 40.6411 17.6812 40.3864 17.8728 40.0362C17.8728 40.0043 17.9048 39.9725 17.9048 39.9725C17.9367 39.9088 17.9687 39.8451 18.0006 39.8133C18.0965 39.5904 18.1284 39.4312 18.1923 39.2402C18.2243 39.1447 18.2562 39.0491 18.2882 38.9536C18.5118 38.3168 18.6715 37.8074 18.9591 37.3616C19.0869 37.1706 19.2466 37.1387 19.3744 37.075C19.4063 37.075 19.4063 37.075 19.4383 37.0432L19.6619 36.6293C21.0676 37.1706 22.6011 37.4571 24.1346 37.4571C25.0611 37.4571 26.0195 37.3616 26.914 37.1387C27.4891 37.0114 28.0322 36.8522 28.5753 36.6611L28.767 37.0114C28.799 37.0114 28.799 37.0114 28.8309 37.0432C28.9906 37.075 29.1184 37.1387 29.2462 37.3298C29.5018 37.7755 29.6935 38.3168 29.9171 38.9218V38.9536C29.9491 39.0491 29.981 39.1447 30.013 39.2402C30.0769 39.4312 30.1088 39.6223 30.2047 39.8133C30.2366 39.877 30.2685 39.9088 30.3005 39.9725C30.3005 40.0043 30.3324 40.0362 30.3324 40.0362C30.5241 40.4183 30.9075 40.6411 31.2909 40.6411C31.4187 40.6411 31.5465 40.6093 31.6742 40.5456C31.8979 40.4183 32.0896 40.2272 32.1535 39.9725C32.2174 39.7178 32.2174 39.4312 32.0896 39.1765C32.0896 39.1447 32.0576 39.1447 32.0576 39.1128C32.0257 39.0491 31.9937 38.9855 31.9618 38.9536C31.8659 38.7626 31.7381 38.6034 31.6103 38.4442C31.5465 38.3486 31.4826 38.285 31.4187 38.1894V38.1576C31.0672 37.6163 30.7478 37.1387 30.588 36.6611C30.5241 36.4382 30.588 36.3109 30.62 36.1517C30.62 36.1198 30.6519 36.1198 30.6519 36.088L30.4922 35.7059C32.1854 34.7188 33.6231 33.3179 34.7093 31.5985C35.2843 30.707 35.7316 29.7199 36.0511 28.7329L36.4344 28.7965C36.4664 28.7965 36.4664 28.7647 36.4983 28.7647C36.6261 28.701 36.722 28.6055 36.9137 28.6055H36.9776C37.4887 28.6692 38.0318 28.8602 38.6388 29.0831H38.6708C38.7666 29.1149 38.8625 29.1786 38.9583 29.2105C39.15 29.306 39.3097 29.3697 39.5334 29.4334C39.5973 29.4334 39.6612 29.4652 39.7251 29.4652C39.757 29.4652 39.789 29.4652 39.8209 29.497C39.9167 29.5289 39.9806 29.5289 40.0765 29.5289C40.5557 29.5289 40.971 29.2105 41.0988 28.7965C41.0988 28.4145 40.7474 27.905 40.1723 27.7458ZM25.3806 26.1856L23.9749 26.8543L22.5692 26.1856L22.2177 24.6891L23.1762 23.4792H24.7416L25.7 24.6891L25.3806 26.1856ZM33.7189 22.8742C33.9745 23.9568 34.0384 25.0394 33.9425 26.0901L29.0545 24.6891C28.6073 24.5618 28.3517 24.116 28.4475 23.6703C28.4795 23.5429 28.5434 23.4155 28.6392 23.32L32.5049 19.8494C33.048 20.7409 33.4633 21.7598 33.7189 22.8742ZM30.9714 17.939L26.7862 20.9001C26.4348 21.123 25.9556 21.0593 25.6681 20.7091C25.5722 20.6136 25.5403 20.4862 25.5083 20.3589L25.2208 15.1689C27.4252 15.4236 29.4379 16.4107 30.9714 17.939ZM21.7066 15.3281C22.058 15.2644 22.3775 15.2007 22.7289 15.137L22.4414 20.2315C22.4094 20.6773 22.058 21.0593 21.5788 21.0593C21.451 21.0593 21.2912 21.0275 21.1954 20.9638L16.9464 17.939C18.2562 16.6335 19.8856 15.742 21.7066 15.3281ZM15.4129 19.8494L19.2146 23.2245C19.5661 23.5111 19.598 24.0523 19.3105 24.4026C19.2146 24.5299 19.0869 24.6255 18.9271 24.6573L13.9752 26.0901C13.7835 23.925 14.2628 21.728 15.4129 19.8494ZM14.5503 28.4781L19.63 27.6185C20.0453 27.5866 20.4287 27.8732 20.5245 28.2871C20.5565 28.4781 20.5565 28.6373 20.4926 28.7965L18.5437 33.4771C16.7547 32.3308 15.317 30.5796 14.5503 28.4781ZM26.2112 34.8144C25.4764 34.9736 24.7416 35.0691 23.9749 35.0691C22.8567 35.0691 21.7705 34.878 20.7481 34.5596L23.272 30.0065C23.5276 29.7199 23.9429 29.5926 24.2943 29.7836C24.4541 29.8791 24.5819 30.0065 24.6777 30.1338L27.1377 34.5596C26.8501 34.6552 26.5307 34.7188 26.2112 34.8144ZM32.441 30.3886C31.6423 31.6622 30.588 32.6811 29.374 33.4771L27.3613 28.6692C27.2655 28.2871 27.4252 27.8732 27.8086 27.6821C27.9364 27.6185 28.0961 27.5866 28.2558 27.5866L33.3675 28.4463C33.1758 29.1468 32.8563 29.7836 32.441 30.3886Z" fill="url(#paint1_linear)"/>
<defs>
<linearGradient id="paint0_linear" x1="-9.12606e-07" y1="10.2173" x2="48.2261" y2="10.6004" gradientUnits="userSpaceOnUse">
<stop stop-color="#A468FF"/>
<stop offset="0.446494" stop-color="#895AFF"/>
<stop offset="1" stop-color="#4839FF"/>
</linearGradient>
<linearGradient id="paint1_linear" x1="7.05884" y1="14.1951" x2="41.2592" y2="14.4666" gradientUnits="userSpaceOnUse">
<stop stop-color="#A468FF"/>
<stop offset="0.446494" stop-color="#895AFF"/>
<stop offset="1" stop-color="#4839FF"/>
</linearGradient>
</defs>
</svg>
