<svg width="120" height="120" viewBox="0 0 120 120" fill="none" xmlns="http://www.w3.org/2000/svg">
<path d="M60.9233 70.9723C60.5668 70.938 60.2206 70.8331 59.9047 70.6636C59.2791 70.3115 58.8123 69.7312 58.6007 69.0427C58.3892 68.3542 58.4491 67.6104 58.7682 66.9651L62.8271 59.2961C63.165 58.6552 63.7422 58.1753 64.4319 57.9618C65.1215 57.7483 65.8673 57.8186 66.5055 58.1573C67.1436 58.496 67.6219 59.0753 67.8354 59.7682C68.0488 60.461 67.9799 61.2106 67.6438 61.8524L63.5848 69.5214C63.419 69.8404 63.192 70.1233 62.9168 70.3536C62.6416 70.5839 62.3238 70.7572 61.9816 70.8634C61.6395 70.9696 61.2797 71.0066 60.9233 70.9723Z" fill="url(#paint0_linear)"/>
<path d="M70.8368 88.4492C70.7827 88.5036 70.7827 88.5036 70.7827 88.558L68.8885 92.5285C68.5558 93.1609 67.9921 93.6389 67.3158 93.8621C66.6395 94.0853 65.9035 94.0361 65.2625 93.725C64.9423 93.5684 64.656 93.3497 64.42 93.0816C64.184 92.8135 64.003 92.5012 63.8874 92.1627C63.7717 91.8241 63.7237 91.466 63.7461 91.1087C63.7685 90.7515 63.8608 90.4022 64.0178 90.0809L65.9661 86.1648C66.284 85.6025 66.7914 85.1729 67.3967 84.9535C68.0021 84.734 68.6655 84.7393 69.2674 84.9682C69.6018 85.0878 69.9088 85.2738 70.1701 85.5153C70.4313 85.7568 70.6415 86.0487 70.788 86.3736C70.9345 86.6985 71.0143 87.0498 71.0227 87.4064C71.0311 87.763 70.9679 88.1177 70.8368 88.4492Z" fill="url(#paint1_linear)"/>
<path d="M54.3304 86.0016L51.2997 91.6582L51.2456 91.767L39.9887 68.76L27 42.1088H48.9184L57.6858 58.4258L54.7092 64.028L54.601 64.0824L45.7254 47.5478H36.038L51.2997 80.1275L53.4645 75.9939C53.6312 75.6755 53.8587 75.3933 54.1341 75.1634C54.4094 74.9334 54.7271 74.7603 55.0691 74.6539C55.4111 74.5475 55.7705 74.5099 56.127 74.5433C56.4834 74.5766 56.8298 74.6803 57.1464 74.8483C57.4629 75.0163 57.7434 75.2453 57.9718 75.5224C58.2002 75.7994 58.372 76.119 58.4774 76.4628C58.5828 76.8066 58.6197 77.168 58.586 77.5261C58.5523 77.8843 58.4487 78.2323 58.2811 78.5502L54.3304 86.0016Z" fill="url(#paint2_linear)"/>
<path d="M94 42.4351L91.294 47.8198L91.0234 48.5812L90.9693 48.6356C90.7775 48.9654 90.5197 49.2516 90.2124 49.4763C89.905 49.7009 89.5546 49.8592 89.1834 49.941C88.4801 50.0982 87.7436 49.9689 87.135 49.5816C86.5264 49.1942 86.0954 48.5802 85.9362 47.8742H82.689C81.9713 47.8742 81.2831 47.5876 80.7756 47.0776C80.2681 46.5676 79.983 45.8759 79.983 45.1546C79.983 44.4334 80.2681 43.7417 80.7756 43.2317C81.2831 42.7217 81.9713 42.4351 82.689 42.4351H94Z" fill="url(#paint3_linear)"/>
<path d="M86.9103 56.4134L84.7456 60.819L83.122 64.2456C82.7893 64.878 82.2255 65.3561 81.5492 65.5792C80.873 65.8024 80.1369 65.7533 79.496 65.4422C79.1757 65.2855 78.8894 65.0668 78.6534 64.7987C78.4174 64.5306 78.2365 64.2184 78.1208 63.8798C78.0052 63.5413 77.9572 63.1831 77.9795 62.8259C78.0019 62.4686 78.0942 62.1193 78.2512 61.798L82.0937 54.0202V53.9658C82.2523 53.6468 82.4722 53.3625 82.7408 53.1294C83.0094 52.8963 83.3213 52.719 83.6584 52.6077C83.9956 52.4964 84.3514 52.4534 84.7052 52.4812C85.059 52.5089 85.4038 52.6068 85.7197 52.7693C86.0414 52.9239 86.3286 53.1425 86.564 53.4117C86.7994 53.6809 86.9781 53.9953 87.0894 54.3358C87.2006 54.6763 87.2421 55.0359 87.2114 55.393C87.1806 55.7501 87.0782 56.0972 86.9103 56.4134Z" fill="url(#paint4_linear)"/>
<path d="M78.9006 72.4585L77.9265 74.3622L75.1123 80.2363C74.7796 80.8687 74.2158 81.3468 73.5395 81.5699C72.8633 81.7931 72.1272 81.744 71.4863 81.4329C71.166 81.2762 70.8797 81.0575 70.6437 80.7894C70.4078 80.5213 70.2268 80.2091 70.1111 79.8705C69.9955 79.532 69.9475 79.1738 69.9698 78.8166C69.9922 78.4593 70.0845 78.11 70.2415 77.7887L74.084 70.0109C74.2439 69.6931 74.4646 69.41 74.7333 69.1779C75.0021 68.9457 75.3137 68.769 75.6504 68.6579C75.9871 68.5468 76.3423 68.5034 76.6957 68.5303C77.0491 68.5571 77.3937 68.6537 77.71 68.8144C78.0263 68.9751 78.3079 69.1968 78.5389 69.4669C78.7699 69.737 78.9457 70.0502 79.0563 70.3886C79.1669 70.727 79.21 71.084 79.1833 71.4391C79.1566 71.7943 79.0606 72.1406 78.9006 72.4585Z" fill="url(#paint5_linear)"/>
<path d="M69.2997 55.1444C68.9471 55.1103 68.6048 55.0055 68.2932 54.8361C67.6706 54.4812 67.2062 53.9007 66.995 53.2134C66.7838 52.526 66.8416 51.7835 67.1567 51.1376L71.9192 42H73.5969C74.033 41.9985 74.4619 42.1109 74.8417 42.3264C75.1591 42.493 75.4405 42.7212 75.6697 42.9977C75.8989 43.2743 76.0713 43.5937 76.177 43.9376C76.2826 44.2814 76.3195 44.6429 76.2854 45.0012C76.2512 45.3595 76.1468 45.7074 75.9782 46.0249L71.9192 53.6939C71.7595 54.0117 71.5381 54.2942 71.2679 54.5245C70.9977 54.7548 70.6844 54.9283 70.3463 55.0348C70.0082 55.1413 69.6524 55.1786 69.2997 55.1444Z" fill="url(#paint6_linear)"/>
<path fill-rule="evenodd" clip-rule="evenodd" d="M39.036 114.888C36.3359 114.888 33.7857 113.691 32.0606 111.521L5.80884 78.9728C4.08372 76.803 3.40868 74.0345 4.08372 71.3409L13.4593 30.712C14.0594 28.0183 15.8595 25.8485 18.3347 24.6513L56.2872 6.54412C57.4873 5.94553 58.8374 5.64624 60.1875 5.64624C61.5376 5.64624 62.8876 5.94553 64.0877 6.54412L102.04 24.5765C104.515 25.7736 106.316 27.9435 106.916 30.6371L116.291 71.2661C116.891 73.9597 116.291 76.7281 114.566 78.898L88.3143 111.446C86.5892 113.541 84.039 114.813 81.3389 114.813L39.036 114.888ZM10.4955 75.2264C9.86353 74.4246 9.71298 73.5606 9.90374 72.7994L9.91742 72.7448L19.3108 32.0388L19.3158 32.0166C19.4941 31.216 20.0234 30.5032 20.9361 30.058L58.9182 11.9367L58.9653 11.9133C59.2818 11.7554 59.7072 11.6462 60.1875 11.6462C60.6677 11.6462 61.0932 11.7554 61.4097 11.9133L61.461 11.9389L99.4421 29.9848C100.353 30.4301 100.881 31.1421 101.059 31.9417L101.064 31.964L110.439 72.5877C110.649 73.5558 110.432 74.4499 109.879 75.1521L83.6676 107.65C83.0141 108.433 82.1332 108.813 81.3389 108.813L39.036 108.888H39.0316C38.138 108.887 37.3281 108.505 36.7572 107.787L36.744 107.77L10.4955 75.2264Z" fill="url(#paint7_linear)"/>
<defs>
<linearGradient id="paint0_linear" x1="3.82568" y1="27.3065" x2="117.048" y2="28.2049" gradientUnits="userSpaceOnUse">
<stop stop-color="#A468FF"/>
<stop offset="0.446494" stop-color="#895AFF"/>
<stop offset="1" stop-color="#4839FF"/>
</linearGradient>
<linearGradient id="paint1_linear" x1="3.82568" y1="27.3065" x2="117.048" y2="28.2049" gradientUnits="userSpaceOnUse">
<stop stop-color="#A468FF"/>
<stop offset="0.446494" stop-color="#895AFF"/>
<stop offset="1" stop-color="#4839FF"/>
</linearGradient>
<linearGradient id="paint2_linear" x1="3.82568" y1="27.3065" x2="117.048" y2="28.2049" gradientUnits="userSpaceOnUse">
<stop stop-color="#A468FF"/>
<stop offset="0.446494" stop-color="#895AFF"/>
<stop offset="1" stop-color="#4839FF"/>
</linearGradient>
<linearGradient id="paint3_linear" x1="3.82568" y1="27.3065" x2="117.048" y2="28.2049" gradientUnits="userSpaceOnUse">
<stop stop-color="#A468FF"/>
<stop offset="0.446494" stop-color="#895AFF"/>
<stop offset="1" stop-color="#4839FF"/>
</linearGradient>
<linearGradient id="paint4_linear" x1="3.82568" y1="27.3065" x2="117.048" y2="28.2049" gradientUnits="userSpaceOnUse">
<stop stop-color="#A468FF"/>
<stop offset="0.446494" stop-color="#895AFF"/>
<stop offset="1" stop-color="#4839FF"/>
</linearGradient>
<linearGradient id="paint5_linear" x1="3.82568" y1="27.3065" x2="117.048" y2="28.2049" gradientUnits="userSpaceOnUse">
<stop stop-color="#A468FF"/>
<stop offset="0.446494" stop-color="#895AFF"/>
<stop offset="1" stop-color="#4839FF"/>
</linearGradient>
<linearGradient id="paint6_linear" x1="3.82568" y1="27.3065" x2="117.048" y2="28.2049" gradientUnits="userSpaceOnUse">
<stop stop-color="#A468FF"/>
<stop offset="0.446494" stop-color="#895AFF"/>
<stop offset="1" stop-color="#4839FF"/>
</linearGradient>
<linearGradient id="paint7_linear" x1="3.82568" y1="27.3065" x2="117.048" y2="28.2049" gradientUnits="userSpaceOnUse">
<stop stop-color="#A468FF"/>
<stop offset="0.446494" stop-color="#895AFF"/>
<stop offset="1" stop-color="#4839FF"/>
</linearGradient>
</defs>
</svg>
