<svg width="16" height="16" viewBox="0 0 16 16" fill="none" xmlns="http://www.w3.org/2000/svg">
<rect width="16" height="16" rx="8" fill="#6B7D99"/>
<path d="M6.90909 9.68353V9.53864C6.91193 9.04148 6.95597 8.64517 7.04119 8.34972C7.12926 8.05426 7.2571 7.81563 7.42472 7.63381C7.59233 7.45199 7.79403 7.28722 8.02983 7.13949C8.20597 7.02586 8.36364 6.90796 8.50284 6.7858C8.64205 6.66364 8.75284 6.5287 8.83523 6.38097C8.91761 6.2304 8.95881 6.06279 8.95881 5.87813C8.95881 5.68211 8.91193 5.51023 8.81818 5.3625C8.72443 5.21478 8.59801 5.10114 8.43892 5.02159C8.28267 4.94205 8.10938 4.90228 7.91903 4.90228C7.73438 4.90228 7.55966 4.94347 7.39489 5.02586C7.23011 5.1054 7.09517 5.22472 6.99006 5.38381C6.88494 5.54006 6.82813 5.73466 6.8196 5.96762H5.08097C5.09517 5.39943 5.23153 4.93068 5.49006 4.56137C5.74858 4.18921 6.09091 3.91222 6.51705 3.7304C6.94318 3.54574 7.41335 3.45341 7.92756 3.45341C8.4929 3.45341 8.9929 3.54716 9.42756 3.73466C9.86222 3.91932 10.2031 4.18779 10.4503 4.54006C10.6974 4.89233 10.821 5.31705 10.821 5.81421C10.821 6.14659 10.7656 6.44205 10.6548 6.70057C10.5469 6.95625 10.3949 7.18353 10.1989 7.38239C10.0028 7.57841 9.77131 7.75597 9.50426 7.91506C9.27983 8.04858 9.09517 8.18779 8.95028 8.33267C8.80824 8.47756 8.7017 8.64517 8.63068 8.83551C8.5625 9.02586 8.52699 9.26023 8.52415 9.53864V9.68353H6.90909ZM7.75284 12.4108C7.46875 12.4108 7.22585 12.3114 7.02415 12.1125C6.82528 11.9108 6.72727 11.6693 6.73011 11.3881C6.72727 11.1097 6.82528 10.871 7.02415 10.6722C7.22585 10.4733 7.46875 10.3739 7.75284 10.3739C8.02273 10.3739 8.25994 10.4733 8.46449 10.6722C8.66903 10.871 8.77273 11.1097 8.77557 11.3881C8.77273 11.5756 8.72301 11.7474 8.62642 11.9037C8.53267 12.0571 8.40909 12.1807 8.25568 12.2744C8.10227 12.3653 7.93466 12.4108 7.75284 12.4108Z" fill="white"/>
</svg>
