<svg width="48" height="48" viewBox="0 0 48 48" fill="none" xmlns="http://www.w3.org/2000/svg">
<path d="M43.1665 31.9488H40.3441C40.3441 31.8528 40.3441 31.7472 40.3441 31.6704C40.3492 28.3538 39.4374 25.1002 37.7094 22.2693C35.9813 19.4384 33.5043 17.1403 30.5521 15.6288L30.9265 15.2544C31.0165 15.1652 31.0879 15.059 31.1366 14.942C31.1854 14.825 31.2105 14.6996 31.2105 14.5728C31.2105 14.4461 31.1854 14.3206 31.1366 14.2036C31.0879 14.0866 31.0165 13.9805 30.9265 13.8912L30.0433 13.0176L36.6193 6.43203C36.7981 6.25216 36.8984 6.00884 36.8984 5.75523C36.8984 5.50161 36.7981 5.25829 36.6193 5.07843L31.8193 0.278426C31.6428 0.103378 31.4054 0.00358094 31.1569 2.56348e-05C30.9027 0.00356178 30.6593 0.103001 30.4753 0.278426L23.8993 6.86403L23.0257 5.98083C22.936 5.89185 22.8296 5.82146 22.7126 5.77369C22.5957 5.72591 22.4704 5.70169 22.3441 5.70243C22.2177 5.70169 22.0925 5.72591 21.9755 5.77369C21.8586 5.82146 21.7522 5.89185 21.6625 5.98083L10.4689 17.1744L10.2289 16.9344C10.049 16.7556 9.80571 16.6553 9.55209 16.6553C9.29847 16.6553 9.05516 16.7556 8.87529 16.9344L3.47049 22.3296C3.29169 22.5095 3.19133 22.7528 3.19133 23.0064C3.19133 23.26 3.29169 23.5034 3.47049 23.6832L13.0033 33.168C13.1832 33.3468 13.4265 33.4472 13.6801 33.4472C13.9337 33.4472 14.177 33.3468 14.3569 33.168L19.7233 27.7728C19.8935 27.5943 19.9884 27.3571 19.9884 27.1104C19.9884 26.8638 19.8935 26.6266 19.7233 26.448L23.3329 22.8384C25.5071 23.0836 27.515 24.1204 28.9739 25.751C30.4328 27.3816 31.2406 29.4921 31.2433 31.68C31.248 31.7728 31.248 31.8657 31.2433 31.9584H26.9425C26.6879 31.9584 26.4437 32.0596 26.2637 32.2396C26.0836 32.4196 25.9825 32.6638 25.9825 32.9184V41.904H3.96009C3.70548 41.904 3.4613 42.0052 3.28127 42.1852C3.10123 42.3652 3.00009 42.6094 3.00009 42.864V47.04C3.00009 47.2946 3.10123 47.5388 3.28127 47.7188C3.4613 47.8989 3.70548 48 3.96009 48H43.1665C43.4211 48 43.6653 47.8989 43.8453 47.7188C44.0253 47.5388 44.1265 47.2946 44.1265 47.04V32.9088C44.1265 32.6542 44.0253 32.41 43.8453 32.23C43.6653 32.05 43.4211 31.9488 43.1665 31.9488ZM22.3441 8.01603L28.9009 14.5728L28.2577 15.216L18.3793 25.0848L11.8225 18.528L22.3441 8.01603ZM13.6273 31.1328L5.51529 23.04L9.54729 18.9984L9.67209 19.1136C9.69483 19.1701 9.72732 19.2221 9.76809 19.2672L15.3265 24.816L17.6497 27.1296L13.6273 31.1328ZM24.9937 21.1872L29.1217 17.0688C31.9083 18.3592 34.2665 20.4214 35.9169 23.011C37.5674 25.6007 38.4408 28.6092 38.4337 31.68C38.4384 31.7728 38.4384 31.8657 38.4337 31.9584H33.1633C33.168 31.8657 33.168 31.7728 33.1633 31.68C33.159 29.2724 32.3539 26.9347 30.8748 25.035C29.3957 23.1353 27.3267 21.7817 24.9937 21.1872ZM4.92009 43.8144H25.9825V46.08H4.92009V43.8144ZM42.2065 46.08H27.9025V33.8688H42.2065V46.08Z" fill="url(#paint0_linear)"/>
<defs>
<linearGradient id="paint0_linear" x1="3" y1="9.51735" x2="44.321" y2="9.78969" gradientUnits="userSpaceOnUse">
<stop stop-color="#A468FF"/>
<stop offset="0.446494" stop-color="#895AFF"/>
<stop offset="1" stop-color="#4839FF"/>
</linearGradient>
</defs>
</svg>
